<?xml version="1.0" encoding="utf-8"?>
<svg version="1.1" xmlns:xlink="http://www.w3.org/1999/xlink" width="72px" height="29px" xmlns="http://www.w3.org/2000/svg">
  <defs>
    <mask fill="white" id="clip3">
      <path d="M 0 21.3684210526316  L 0 7.63157894736842  C 0 3.35789473684217  3.68372093023254 0  8.37209302325581 0  L 50.5674418604663 0  L 63.6279069767442 0  C 68.3162790697675 0  72 3.35789473684217  72 7.63157894736842  L 72 21.3684210526316  C 72 25.6421052631578  68.3162790697675 29  63.6279069767442 29  L 8.37209302325581 29  C 3.68372093023254 29  0 25.6421052631578  0 21.3684210526316  Z " fill-rule="evenodd" />
    </mask>
  </defs>
  <g transform="matrix(1 0 0 1 -615 -724 )">
    <path d="M 0 21.3684210526316  L 0 7.63157894736842  C 0 3.35789473684217  3.68372093023254 0  8.37209302325581 0  L 50.5674418604663 0  L 63.6279069767442 0  C 68.3162790697675 0  72 3.35789473684217  72 7.63157894736842  L 72 21.3684210526316  C 72 25.6421052631578  68.3162790697675 29  63.6279069767442 29  L 8.37209302325581 29  C 3.68372093023254 29  0 25.6421052631578  0 21.3684210526316  Z " fill-rule="nonzero" fill="#ffffff" stroke="none" transform="matrix(1 0 0 1 615 724 )" />
    <path d="M 0 21.3684210526316  L 0 7.63157894736842  C 0 3.35789473684217  3.68372093023254 0  8.37209302325581 0  L 50.5674418604663 0  L 63.6279069767442 0  C 68.3162790697675 0  72 3.35789473684217  72 7.63157894736842  L 72 21.3684210526316  C 72 25.6421052631578  68.3162790697675 29  63.6279069767442 29  L 8.37209302325581 29  C 3.68372093023254 29  0 25.6421052631578  0 21.3684210526316  Z " stroke-width="2" stroke="#797979" fill="none" transform="matrix(1 0 0 1 615 724 )" mask="url(#clip3)" />
  </g>
</svg>