<?xml version="1.0" encoding="utf-8"?>
<svg version="1.1" xmlns:xlink="http://www.w3.org/1999/xlink" width="80px" height="30px" xmlns="http://www.w3.org/2000/svg">
  <defs>
    <mask fill="white" id="clip11">
      <path d="M 0 22.1052631578947  L 0 7.89473684210526  C 0 3.47368421052639  4.09302325581393 0  9.30232558139535 0  L 56.1860465116293 0  L 70.6976744186046 0  C 75.9069767441861 0  80 3.47368421052639  80 7.89473684210526  L 80 22.1052631578947  C 80 26.5263157894736  75.9069767441861 30  70.6976744186046 30  L 9.30232558139535 30  C 4.09302325581393 30  0 26.5263157894736  0 22.1052631578947  Z " fill-rule="evenodd" />
    </mask>
  </defs>
  <g transform="matrix(1 0 0 1 -628 -722 )">
    <path d="M 0 22.1052631578947  L 0 7.89473684210526  C 0 3.47368421052639  4.09302325581393 0  9.30232558139535 0  L 56.1860465116293 0  L 70.6976744186046 0  C 75.9069767441861 0  80 3.47368421052639  80 7.89473684210526  L 80 22.1052631578947  C 80 26.5263157894736  75.9069767441861 30  70.6976744186046 30  L 9.30232558139535 30  C 4.09302325581393 30  0 26.5263157894736  0 22.1052631578947  Z " fill-rule="nonzero" fill="#ffffff" stroke="none" transform="matrix(1 0 0 1 628 722 )" />
    <path d="M 0 22.1052631578947  L 0 7.89473684210526  C 0 3.47368421052639  4.09302325581393 0  9.30232558139535 0  L 56.1860465116293 0  L 70.6976744186046 0  C 75.9069767441861 0  80 3.47368421052639  80 7.89473684210526  L 80 22.1052631578947  C 80 26.5263157894736  75.9069767441861 30  70.6976744186046 30  L 9.30232558139535 30  C 4.09302325581393 30  0 26.5263157894736  0 22.1052631578947  Z " stroke-width="2" stroke="#797979" fill="none" transform="matrix(1 0 0 1 628 722 )" mask="url(#clip11)" />
  </g>
</svg>